<?xml version="1.0" standalone="no"?>
<!DOCTYPE svg PUBLIC "-//W3C//DTD SVG 1.0//EN" "http://www.w3.org/TR/2001/REC-SVG-20010904/DTD/svg10.dtd">
<svg xmlns="http://www.w3.org/2000/svg" xmlns:xlink="http://www.w3.org/1999/xlink" id="body_1" width="24" height="24">

<g transform="matrix(0.20689657 0 0 0.20689657 0 0)">
    <path d="M98.724 98.7481L81.5643 98.7481L81.5643 71.8594C 81.5643 65.4474 81.4339 57.1959 72.6223 57.1959C 63.6755 57.1959 62.3091 64.1728 62.3091 71.3862L62.3091 71.3862L62.3091 98.7481L45.1493 98.7481L45.1493 43.4546L61.6331 43.4546L61.6331 50.9915L61.8552 50.9915C 64.1583 46.6461 69.7591 42.0592 78.1265 42.0592C 95.5132 42.0592 98.7288 53.5023 98.7288 68.3975L98.7288 68.3975L98.7288 98.7481L98.724 98.7481zM25.7686 35.8887C 24.4595 35.8893 23.1632 35.6318 21.9538 35.1308C 20.7444 34.6299 19.6456 33.8953 18.7204 32.9692C 17.7952 32.0431 17.0617 30.9437 16.562 29.7338C 16.0622 28.5239 15.8059 27.2273 15.8078 25.9182C 15.8088 23.9472 16.3942 22.0208 17.49 20.3825C 18.5858 18.7442 20.1429 17.4676 21.9642 16.7142C 23.7855 15.9608 25.7894 15.7645 27.7223 16.1499C 29.6553 16.5354 31.4305 17.4854 32.8235 18.8798C 34.2166 20.2741 35.1649 22.0503 35.5484 23.9836C 35.932 25.9169 35.7337 27.9206 34.9786 29.7412C 34.2234 31.5618 32.9453 33.1176 31.306 34.2118C 29.6666 35.3061 27.7396 35.8896 25.7686 35.8887zM34.3726 98.7481L17.1646 98.7481L17.1646 43.4546L34.3726 43.4546L34.3726 98.7481zM107.309 0L8.5509 0C 3.824 0 0 3.73709 0 8.34811L0 8.34811L0 107.531C 0 112.147 3.824 115.879 8.5509 115.879L8.5509 115.879L107.294 115.879C 112.016 115.879 115.879 112.147 115.879 107.531L115.879 107.531L115.879 8.34811C 115.879 3.73709 112.016 0 107.294 0L107.294 0L107.309 0z" stroke="none" fill="#FFFFFF" fill-rule="nonzero" />
</g>
</svg>