<?xml version="1.0" standalone="no"?>
<!DOCTYPE svg PUBLIC "-//W3C//DTD SVG 1.0//EN" "http://www.w3.org/TR/2001/REC-SVG-20010904/DTD/svg10.dtd">
<svg xmlns="http://www.w3.org/2000/svg" xmlns:xlink="http://www.w3.org/1999/xlink" id="body_1" width="24" height="24">

<g transform="matrix(0.20512822 0 0 0.20512822 0.10256411 -0)">
    <path d="M84.4857 69.7719C 83.0449 69.049 75.9571 65.5658 74.6376 65.0807C 73.3132 64.6004 72.3526 64.3627 71.3872 65.8084C 70.4315 67.2492 67.6662 70.4947 66.8269 71.4553C 65.9877 72.4207 65.1435 72.5371 63.7027 71.8191C 62.2618 71.0914 57.6143 69.573 52.108 64.6634C 47.8243 60.8406 44.9281 56.1203 44.0888 54.6746C 43.2495 53.2337 44.0015 52.4527 44.7195 51.7347C 45.3695 51.0895 46.1652 50.0513 46.8832 49.212C 47.606 48.3679 47.8437 47.7663 48.3289 46.8009C 48.8091 45.8403 48.5714 45.001 48.2076 44.2782C 47.8437 43.5554 44.962 36.4579 43.7638 33.5713C 42.5897 30.7624 41.4012 31.1457 40.5182 31.0972C 39.597 31.0605 38.675 31.0443 37.753 31.0486C 36.7924 31.0486 35.2303 31.4076 33.9107 32.8533C 32.5912 34.2942 28.8654 37.7823 28.8654 44.8798C 28.8654 51.9724 34.032 58.8273 34.75 59.7927C 35.4729 60.7533 44.9184 75.3169 59.3802 81.5606C 62.8197 83.0451 65.5025 83.9329 67.5983 84.5927C 71.0524 85.6939 74.1961 85.5387 76.6751 85.1651C 79.4452 84.7528 85.2037 81.677 86.4069 78.3102C 87.61 74.9434 87.61 72.0569 87.2461 71.4553C 86.8872 70.8537 85.9266 70.4947 84.4809 69.7719L84.4809 69.7719L84.4857 69.7719zM58.1819 105.686L58.1625 105.686C 49.5745 105.687 41.1444 103.378 33.7555 99.0011L33.7555 99.0011L32.0042 97.9629L13.8554 102.727L18.697 85.0293L17.5569 83.2149C 12.7563 75.5705 10.2166 66.7237 10.2314 57.6969C 10.2363 31.2573 31.7519 9.7465 58.2013 9.7465C 71.0088 9.7465 83.0498 14.7434 92.1023 23.8056C 96.5688 28.2524 100.109 33.5409 102.518 39.365C 104.927 45.1891 106.157 51.4331 106.137 57.7358C 106.123 84.1755 84.6119 105.686 58.1819 105.686zM98.996 16.9216C 93.6508 11.5411 87.2909 7.27493 80.2849 4.37027C 73.2789 1.46561 65.7661 -0.0197752 58.1819 0.000198795C 26.3815 0.000198795 0.499686 25.882 0.485132 57.6921C 0.485132 67.8605 3.1388 77.7863 8.18903 86.5332L8.18903 86.5332L0 116.432L30.5876 108.408C 39.0463 113.016 48.525 115.431 58.1576 115.433L58.1576 115.433L58.1819 115.433C 89.9774 115.433 115.864 89.5507 115.879 57.7358C 115.902 50.1545 114.422 42.6438 111.524 35.6382C 108.626 28.6325 104.368 22.271 98.996 16.9216z" stroke="none" fill="#FFFFFF" fill-rule="nonzero" />
</g>
</svg>