<?xml version="1.0" standalone="no"?>
<!DOCTYPE svg PUBLIC "-//W3C//DTD SVG 1.0//EN" "http://www.w3.org/TR/2001/REC-SVG-20010904/DTD/svg10.dtd">
<svg xmlns="http://www.w3.org/2000/svg" xmlns:xlink="http://www.w3.org/1999/xlink" id="body_1" width="24" height="24">

<g transform="matrix(0.20689657 0 0 0.20689657 0 0)">
    <path d="M57.9395 0C 42.1992 0 40.2341 0.0724243 34.0539 0.347637C 27.8834 0.637334 23.6827 1.60782 19.9891 3.04182C 16.1796 4.51928 12.9446 6.5037 9.72417 9.72417C 6.5037 12.9446 4.51445 16.1748 3.04182 19.9891C 1.60782 23.6827 0.632506 27.8834 0.347637 34.0539C 0.0579394 40.2341 0 42.1992 0 57.9395C 0 73.6797 0.0724243 75.6448 0.347637 81.825C 0.637334 87.9907 1.60782 92.1962 3.04182 95.8898C 4.49655 99.7565 6.77697 103.26 9.72417 106.155C 12.6177 109.104 16.1212 111.385 19.9891 112.837C 23.6876 114.266 27.8882 115.246 34.0539 115.531C 40.2341 115.821 42.1992 115.879 57.9395 115.879C 73.6797 115.879 75.6448 115.806 81.825 115.531C 87.9907 115.242 92.1962 114.266 95.8898 112.837C 99.7556 111.381 103.258 109.1 106.155 106.155C 109.105 103.262 111.386 99.7583 112.837 95.8898C 114.266 92.1962 115.246 87.9907 115.531 81.825C 115.821 75.6448 115.879 73.6797 115.879 57.9395C 115.879 42.1992 115.806 40.2341 115.531 34.0539C 115.242 27.8882 114.266 23.6779 112.837 19.9891C 111.382 16.1227 109.101 12.6198 106.155 9.72417C 103.263 6.77236 99.7592 4.49122 95.8898 3.04182C 92.1962 1.60782 87.9907 0.632506 81.825 0.347637C 75.6448 0.0579394 73.6797 0 57.9395 0zM57.9395 10.4291C 73.4045 10.4291 75.2489 10.5064 81.3566 10.7719C 87.0057 11.0375 90.0717 11.9742 92.1092 12.7756C 94.8227 13.8234 96.7444 15.0787 98.7819 17.1018C 100.805 19.1297 102.06 21.0562 103.108 23.7697C 103.9 25.8072 104.846 28.8732 105.102 34.5223C 105.377 40.6349 105.44 42.4696 105.44 57.9395C 105.44 73.4093 105.368 75.2489 105.083 81.3566C 104.788 87.0057 103.847 90.0717 103.05 92.1092C 102.108 94.6236 100.626 96.9012 98.7095 98.7819C 96.8368 100.7 94.5608 102.178 92.0465 103.108C 90.0186 103.9 86.9044 104.846 81.2553 105.102C 75.104 105.377 73.2934 105.44 57.7946 105.44C 42.291 105.44 40.4804 105.368 34.334 105.083C 28.68 104.788 25.5658 103.847 23.5379 103.05C 21.0219 102.119 18.7467 100.636 16.8797 98.7095C 14.9415 96.8494 13.4551 94.5701 12.5342 92.0465C 11.7376 90.0186 10.8009 86.9044 10.5064 81.2553C 10.2891 75.1716 10.2118 73.2934 10.2118 57.867C 10.2118 42.4358 10.2891 40.5528 10.5064 34.3967C 10.8009 28.7476 11.7376 25.6382 12.5342 23.6103C 13.5482 20.8582 14.847 18.9752 16.8797 16.9425C 18.9027 14.9194 20.7906 13.6158 23.5379 12.6067C 25.5658 11.8052 28.6124 10.8636 34.2615 10.574C 40.4176 10.3567 42.2282 10.2843 57.7222 10.2843L57.7222 10.2843L57.9395 10.4291zM57.9395 28.1875C 54.0324 28.1875 50.1636 28.9571 46.5539 30.4523C 42.9442 31.9474 39.6644 34.139 36.9017 36.9017C 34.139 39.6644 31.9474 42.9442 30.4523 46.5539C 28.9571 50.1636 28.1875 54.0324 28.1875 57.9395C 28.1875 61.8465 28.9571 65.7153 30.4523 69.325C 31.9474 72.9347 34.139 76.2145 36.9017 78.9772C 39.6644 81.7399 42.9442 83.9315 46.5539 85.4266C 50.1636 86.9218 54.0324 87.6914 57.9395 87.6914C 65.8301 87.6914 73.3977 84.5568 78.9772 78.9772C 84.5568 73.3977 87.6914 65.8301 87.6914 57.9395C 87.6914 50.0488 84.5568 42.4812 78.9772 36.9017C 73.3977 31.3221 65.8301 28.1875 57.9395 28.1875zM57.9395 77.2526C 47.2689 77.2526 38.6263 68.61 38.6263 57.9395C 38.6263 47.2689 47.2689 38.6263 57.9395 38.6263C 68.61 38.6263 77.2526 47.2689 77.2526 57.9395C 77.2526 68.61 68.61 77.2526 57.9395 77.2526zM95.8222 27.0143C 95.7551 28.8134 94.9933 30.5165 93.6967 31.7656C 92.4001 33.0148 90.6699 33.7127 88.8695 33.7127C 87.0691 33.7127 85.3388 33.0148 84.0422 31.7656C 82.7457 30.5165 81.9838 28.8134 81.9167 27.0143C 81.9167 25.1703 82.6492 23.4018 83.9531 22.0979C 85.257 20.7941 87.0255 20.0615 88.8695 20.0615C 90.7134 20.0615 92.4819 20.7941 93.7858 22.0979C 95.0897 23.4018 95.8222 25.1703 95.8222 27.0143z" stroke="none" fill="#FFFFFF" fill-rule="nonzero" />
</g>
</svg>