<?xml version="1.0" standalone="no"?>
<!DOCTYPE svg PUBLIC "-//W3C//DTD SVG 1.0//EN" "http://www.w3.org/TR/2001/REC-SVG-20010904/DTD/svg10.dtd">
<svg xmlns="http://www.w3.org/2000/svg" xmlns:xlink="http://www.w3.org/1999/xlink" id="body_1" width="24" height="15">

<g transform="matrix(0.20547947 0 0 0.20547947 0.08219209 -0)">
    <path d="M33.5115 0C 36.9023 0 39.9839 0.28981 42.7854 0.908068C 45.5724 1.53599 47.9537 2.50202 49.9582 3.85446C 51.9386 5.2069 53.4987 6.99405 54.5951 9.26422C 55.6819 11.5344 56.2374 14.3359 56.2374 17.6204C 56.2374 21.1947 55.4163 24.1894 53.7885 26.6044C 52.1559 29.0195 49.7457 30.9516 46.5336 32.4972C 50.9097 33.7531 54.1459 35.9749 56.3002 39.1145C 58.4641 42.3024 59.5122 46.1182 59.5122 50.5137C 59.5122 54.1363 58.8843 57.2276 57.5319 59.8358C 56.1794 62.4924 54.2957 64.666 51.9289 66.3565C 49.6104 68.0374 46.8572 69.2546 43.8626 70.0612C 40.8549 70.8751 37.7528 71.2877 34.637 71.2881L34.637 71.2881L0 71.2881L0 0.0338132L33.5115 0.0338132L33.5115 0zM81.8227 58.7442C 83.9479 60.8115 87.0054 61.85 90.971 61.85C 93.8207 61.85 96.2841 61.1351 98.3611 59.6909C 100.409 58.2902 101.646 56.7445 102.129 55.1506L102.129 55.1506L114.629 55.1506C 112.682 61.3332 109.567 65.7769 105.452 68.4335C 101.346 71.1384 96.3517 72.4425 90.5749 72.4425C 86.5321 72.4425 82.9239 71.8146 79.6008 70.5105C 76.4753 69.2793 73.6445 67.403 71.2929 65.0041C 68.9922 62.5403 67.2217 59.6304 66.0909 56.4547C 64.8689 53.1219 64.2892 49.451 64.2892 45.4903C 64.2892 41.6117 64.9413 38.0519 66.2358 34.7191C 67.5399 31.338 69.3464 28.5365 71.6455 26.0731C 74.0365 23.6097 76.78 21.7501 80.0307 20.3059C 83.2814 18.8617 86.7929 18.2145 90.7536 18.2145C 95.149 18.2145 98.9165 19.0066 102.249 20.7406C 105.404 22.3526 108.146 24.6659 110.267 27.5028C 112.393 30.3333 113.89 33.5888 114.808 37.2597C 115.725 40.8823 116.015 44.6982 115.822 48.7555L115.822 48.7555L78.6782 48.7555C 78.6782 52.8128 80.0307 56.6383 82.1076 58.7297L82.1076 58.7297L81.7212 58.8746L81.8227 58.7442zM32.362 58.9857C 33.8931 58.9857 35.3567 58.8408 36.7381 58.5365C 38.1388 58.2467 39.385 57.7396 40.4235 57.0875C 41.4378 56.4354 42.3072 55.5032 42.9352 54.2715C 43.5631 53.1123 43.8529 51.5183 43.8529 49.6346C 43.8529 46.012 42.7903 43.4037 40.7616 41.8097C 38.6846 40.2641 35.9798 39.4913 32.5987 39.4913L32.5987 39.4913L15.6497 39.4913L15.6497 59.0534L32.362 59.0534L32.362 58.9084L32.362 58.9857zM98.0858 31.6954C 96.3855 29.8358 93.5454 28.836 90.0822 28.836C 87.8217 28.836 85.9524 29.1934 84.4503 29.9855C 82.9916 30.7101 81.7937 31.6761 80.876 32.8353C 79.9582 33.9946 79.3448 35.1538 78.9825 36.4579C 78.6203 37.7138 78.4029 38.873 78.3305 39.8873L78.3305 39.8873L101.332 39.8873C 100.994 36.2647 99.7377 33.6081 98.0471 31.7244L98.0471 31.7244L98.0471 31.7727L98.0858 31.6954zM31.4925 28.7249C 34.2651 28.7249 36.5642 28.0776 38.3755 26.7349C 40.182 25.4307 41.0514 23.2571 41.0514 20.2721C 41.0514 18.6105 40.7133 17.2533 40.182 16.1858C 39.5541 15.1232 38.7329 14.3021 37.7669 13.7128C 36.7526 13.1138 35.5933 12.6985 34.2892 12.4714C 32.9512 12.2234 31.5926 12.1037 30.2319 12.114L30.2319 12.114L15.6014 12.114L15.6014 28.7297L31.4925 28.7297L31.4925 28.7249zM75.4372 4.77701L104.264 4.77701L104.264 11.8L75.4372 11.8L75.4372 4.71905L75.4372 4.76735L75.4372 4.77701z" stroke="none" fill="#FFFFFF" fill-rule="nonzero" />
</g>
</svg>