<?xml version="1.0" standalone="no"?>
<!DOCTYPE svg PUBLIC "-//W3C//DTD SVG 1.0//EN" "http://www.w3.org/TR/2001/REC-SVG-20010904/DTD/svg10.dtd">
<svg xmlns="http://www.w3.org/2000/svg" xmlns:xlink="http://www.w3.org/1999/xlink" id="body_1" width="24" height="24">

<g transform="matrix(0.20689657 0 0 0.20689657 0 0)">
    <path d="M115.874 57.9419C 115.874 25.9386 89.9354 0 57.937 0C 25.9386 0 0 25.9386 0 57.9419C 0 86.8549 21.1874 110.823 48.8836 115.169L48.8836 115.169L48.8836 74.6871L34.176 74.6871L34.176 57.937L48.8836 57.937L48.8836 45.1753C 48.8836 30.6512 57.5363 22.6311 70.7663 22.6311C 77.1061 22.6311 83.7356 23.761 83.7356 23.761L83.7356 23.761L83.7356 38.0195L76.435 38.0195C 69.2405 38.0195 66.9953 42.4859 66.9953 47.0681L66.9953 47.0681L66.9953 57.9419L83.0645 57.9419L80.4957 74.6919L66.9953 74.6919L66.9953 115.174C 94.6915 110.828 115.879 86.8597 115.879 57.9419L115.879 57.9419L115.874 57.9419z" stroke="none" fill="#FFFFFF" fill-rule="nonzero" />
</g>
</svg>